<svg xmlns="http://www.w3.org/2000/svg" viewBox="0 0 400 400" width="400" height="400" role="img" aria-label="TIPped logo">
  <rect width="400" height="400" rx="40" fill="#0F172A"/>
  <defs>
    <linearGradient id="pin" x1="0.1" y1="0.05" x2="0.9" y2="0.95">
      <stop offset="0" stop-color="#FDE68A"/>
      <stop offset="1" stop-color="#D97706"/>
    </linearGradient>
  </defs>
  <g fill="none" stroke="#F59E0B" stroke-width="22" stroke-linecap="round" stroke-linejoin="round">
    <path d="M66 140V76a10 10 0 0 1 10-10h64"/>
    <path d="M260 66h64a10 10 0 0 1 10 10v64"/>
    <path d="M66 260v64a10 10 0 0 0 10 10h64"/>
    <path d="M260 334h64a10 10 0 0 0 10-10v-64"/>
  </g>
  <path d="M200 92C154 92 118 128 118 174c0 52 56 100 82 126 26-26 82-74 82-126 0-46-36-82-82-82z" fill="url(#pin)"/>
  <g transform="translate(0 -4)" fill="#0F172A">
    <circle cx="200" cy="154" r="15"/>
    <path d="M180 238V204a20 20 0 0 1 40 0v34a8 8 0 0 1-8 8h-24a8 8 0 0 1-8-8z"/>
  </g>
</svg>